<svg width="18" height="18" viewBox="0 0 18 18" fill="none" xmlns="http://www.w3.org/2000/svg">
<g clip-path="url(#clip0_3679_46)">
<path d="M17.9998 8.99988C17.9998 13.9701 13.9701 17.9998 8.99988 17.9998C4.02966 17.9998 0 13.9701 0 8.99988C0 4.02966 4.02966 0 8.99988 0C13.9711 0 17.9998 4.02966 17.9998 8.99988Z" fill="#C4C4C4"/>
<path d="M4.44011 9.30217L4.47893 9.24113L6.82016 5.57858C6.85438 5.52496 6.93482 5.5305 6.9607 5.58875C7.35183 6.46532 7.68933 7.55549 7.53122 8.23419C7.46372 8.51344 7.27879 8.89161 7.07073 9.24113C7.04393 9.292 7.01434 9.34193 6.98289 9.39C6.9681 9.4122 6.94313 9.42514 6.91631 9.42514H4.50852C4.4438 9.42514 4.40589 9.35487 4.44011 9.30217Z" fill="#0F0F0F"/>
<path d="M14.8761 9.98299V10.5627C14.8761 10.596 14.8558 10.6256 14.8262 10.6386C14.645 10.7162 14.0245 11.001 13.7665 11.3598C13.1082 12.2761 12.6052 13.5864 11.4808 13.5864H6.79001C5.1275 13.5864 3.78027 12.2345 3.78027 10.5664V10.5128C3.78027 10.4684 3.81633 10.4324 3.86071 10.4324H6.47565C6.52741 10.4324 6.56532 10.4804 6.56071 10.5313C6.54221 10.7014 6.57365 10.8753 6.6541 11.0334C6.80943 11.3487 7.13121 11.5457 7.47888 11.5457H8.7734V10.535H7.49367C7.42803 10.535 7.38921 10.4592 7.42711 10.4056C7.44097 10.3843 7.4567 10.3621 7.47334 10.3371C7.59447 10.1651 7.76738 9.89792 7.93937 9.59371C8.0568 9.38844 8.17052 9.16929 8.26207 8.94923C8.28057 8.90947 8.29535 8.86877 8.31014 8.82901C8.33511 8.75874 8.36101 8.69309 8.3795 8.62745C8.398 8.57195 8.41278 8.5137 8.42757 8.45915C8.47104 8.27236 8.48953 8.07449 8.48953 7.86922C8.48953 7.78878 8.48584 7.70463 8.47844 7.62419C8.47473 7.53635 8.46365 7.4485 8.45254 7.36066C8.44514 7.28299 8.43128 7.20624 8.41649 7.1258C8.398 7.00837 8.3721 6.89187 8.34251 6.77443L8.33234 6.73006C8.31014 6.6496 8.29166 6.57286 8.26577 6.49242C8.19271 6.23998 8.10858 5.99403 8.01981 5.76379C7.98744 5.67225 7.95046 5.58441 7.91347 5.49657C7.85893 5.36434 7.80343 5.24414 7.75258 5.1304C7.7267 5.07862 7.70451 5.03146 7.68231 4.98338C7.65735 4.92882 7.63146 4.87426 7.60556 4.8225C7.58708 4.78274 7.5658 4.74575 7.551 4.70876L7.39289 4.41657C7.3707 4.3768 7.40769 4.32965 7.45114 4.34167L8.44053 4.60981H8.44331C8.44514 4.60981 8.44608 4.61075 8.447 4.61075L8.57737 4.6468L8.7207 4.6875L8.7734 4.70228V4.11421C8.7734 3.83033 9.00087 3.6001 9.28197 3.6001C9.42251 3.6001 9.55011 3.65743 9.64166 3.75081C9.73319 3.84421 9.79052 3.97181 9.79052 4.11421V4.98709L9.89594 5.01666C9.90426 5.01945 9.91257 5.02314 9.91997 5.02868C9.94587 5.04811 9.98284 5.07676 10.03 5.11191C10.067 5.14149 10.1068 5.17756 10.1548 5.21455C10.2501 5.29128 10.3638 5.39023 10.4886 5.50397C10.5219 5.53262 10.5543 5.56221 10.5839 5.59181C10.7448 5.7416 10.9251 5.91728 11.0971 6.11146C11.1451 6.16602 11.1923 6.22149 11.2404 6.27974C11.2885 6.33892 11.3393 6.39717 11.3837 6.45543C11.442 6.5331 11.5048 6.61354 11.5594 6.69769C11.5853 6.73745 11.6149 6.77813 11.6398 6.81789C11.7101 6.92422 11.7721 7.03427 11.8312 7.1443C11.8562 7.19515 11.8821 7.25063 11.9043 7.30518C11.9699 7.45221 12.0217 7.602 12.055 7.75179C12.0652 7.78416 12.0726 7.81929 12.0763 7.85074V7.85814C12.0874 7.90251 12.0911 7.94967 12.0948 7.99774C12.1095 8.15124 12.1022 8.30473 12.0689 8.45915C12.055 8.52481 12.0365 8.58675 12.0143 8.65241C11.9921 8.71528 11.9699 8.78093 11.9413 8.84288C11.8858 8.9714 11.8201 9.09994 11.7425 9.22014C11.7175 9.26453 11.6879 9.31169 11.6583 9.35608C11.6259 9.40322 11.5927 9.4476 11.5631 9.49107C11.5224 9.54655 11.4789 9.6048 11.4346 9.65658C11.3948 9.71114 11.3541 9.7657 11.3097 9.81377C11.2478 9.88682 11.1886 9.95617 11.1266 10.0227C11.0897 10.0662 11.0499 10.1106 11.0092 10.1504C10.9695 10.1947 10.9288 10.2345 10.8918 10.2715C10.8298 10.3334 10.7781 10.3815 10.7346 10.4213L10.6329 10.5147C10.6181 10.5276 10.5987 10.535 10.5783 10.535H9.79052V11.5457H10.7817C11.0037 11.5457 11.2145 11.467 11.3846 11.3228C11.4429 11.272 11.6972 11.0519 11.9977 10.7199C12.0078 10.7088 12.0208 10.7005 12.0356 10.6968L14.7735 9.90532C14.8243 9.89052 14.8761 9.92935 14.8761 9.98299Z" fill="#0F0F0F"/>
</g>
<defs>
<clipPath id="clip0_3679_46">
<rect width="18" height="18" fill="white"/>
</clipPath>
</defs>
</svg>
