<svg width="32" height="32" viewBox="0 0 32 32" fill="none" xmlns="http://www.w3.org/2000/svg">
<g clip-path="url(#clip0_708_5383)">
<path fill-rule="evenodd" clip-rule="evenodd" d="M15.0515 17.0185C11.235 13.3246 7.58918 9.6584 5.56185 7.15278C5.56382 6.69376 5.56283 6.13653 5.56184 5.57913C5.56085 5.01991 5.55986 4.46053 5.56185 4C7.83214 7.57954 11.8503 12.118 15.8383 16.3089C19.753 12.7643 23.7436 8.94611 26.5417 5.83917L27 6.29894C24.4629 8.63194 20.2483 12.7455 16.2278 16.7172C18.8148 19.4229 21.3648 21.9641 23.3907 23.9832C25.0132 25.6002 26.2997 26.8822 27 27.6457L26.5415 28C25.1982 26.6819 23.3806 24.9584 21.3561 23.0387C19.5063 21.2846 17.4836 19.3666 15.4921 17.4444C11.077 21.8123 7.03972 25.8623 5.91667 26.9888L5 25.6095C7.29878 23.7839 11.0921 20.5764 15.0515 17.0185Z" fill="white"/>
</g>
<defs>
<clipPath id="clip0_708_5383">
<rect width="32" height="32" fill="white"/>
</clipPath>
</defs>
</svg>
