<svg width="32" height="32" viewBox="0 0 32 32" fill="none" xmlns="http://www.w3.org/2000/svg">
<path fill-rule="evenodd" clip-rule="evenodd" d="M25.8537 7.11614L25.6982 6.88546L25.446 6.76819C23.6837 5.94883 21.7995 5.35343 19.83 5.01447L19.1314 4.89423L18.7866 5.51363C18.6511 5.75723 18.5048 6.04288 18.3675 6.32937C16.7794 6.14857 15.2 6.14801 13.631 6.32841C13.4907 6.03971 13.3415 5.7531 13.2052 5.51032L12.8595 4.89483L12.1638 5.01444C10.1918 5.35349 8.30511 5.95118 6.54265 6.77276L6.28834 6.8913L6.13282 7.12483C2.6019 12.427 1.63478 17.6299 2.11473 22.7415L2.15641 23.1853L2.51443 23.451C4.86424 25.1948 7.14955 26.2585 9.39331 26.9532L10.0751 27.1643L10.4963 26.5882C11.0523 25.8278 11.5492 25.0193 11.9785 24.167C14.6392 24.8519 17.3732 24.8548 20.0198 24.1741C20.4474 25.0206 20.9415 25.8301 21.5005 26.5917L21.9219 27.1657L22.6021 26.9553C24.8479 26.2607 27.1356 25.1969 29.4858 23.4507L29.8429 23.1854L29.885 22.7426C30.4484 16.814 28.9158 11.6602 25.8537 7.11614ZM11.0981 23.692C10.7844 23.5736 10.4762 23.4439 10.1739 23.3038C10.0614 23.2517 9.94974 23.1981 9.83894 23.1431C9.60577 23.0273 9.37634 22.9052 9.15091 22.7772C9.05971 22.7254 8.96915 22.6727 8.87927 22.6189C9.06535 22.4819 9.24737 22.3387 9.42322 22.1913C10.0669 22.4905 10.719 22.7447 11.3768 22.9538C11.729 23.0658 12.0828 23.1649 12.4378 23.2511C14.7985 23.8241 17.2128 23.8265 19.5593 23.2584C19.9148 23.1723 20.2688 23.0731 20.6208 22.9608C21.2806 22.7504 21.9335 22.4939 22.5766 22.1913C22.7545 22.3387 22.9365 22.4819 23.1205 22.6189C23.0315 22.6722 22.9419 22.7246 22.8516 22.7759C22.6256 22.9045 22.3957 23.0269 22.1621 23.1429C22.0496 23.1988 21.9362 23.2532 21.822 23.306C21.5193 23.4462 21.211 23.5757 20.8976 23.6941C20.9306 23.7596 20.964 23.825 20.9978 23.89C21.1191 24.1237 21.2458 24.3541 21.3778 24.581C21.6629 25.0711 21.9726 25.545 22.3066 26C24.4539 25.3358 26.6379 24.3209 28.8894 22.648C29.4293 16.9672 27.9672 12.0419 25.0244 7.67497C23.3414 6.89248 21.5418 6.32379 19.6604 5.99998C19.4294 6.4151 19.1594 6.97344 18.9733 7.4176C16.9733 7.11872 14.9917 7.11872 13.0285 7.4176C12.8425 6.97344 12.5664 6.4151 12.3333 5.99998C10.4498 6.32379 8.64818 6.89457 6.96515 7.67912C3.57047 12.7767 2.65023 17.7476 3.11035 22.648C5.36188 24.3188 7.54389 25.3338 9.68907 25.9979C10.022 25.5426 10.3323 25.0693 10.6179 24.5789C10.7508 24.3507 10.8784 24.1188 11.0005 23.8833C11.0334 23.8198 11.0659 23.756 11.0981 23.692ZM8 16.0011C8 18.0046 9.37826 19.9999 11.458 19.9999C13.5632 19.9999 14.9151 18.0042 14.916 16.0076C14.9414 13.9859 13.5539 11.9999 11.458 11.9999C9.34823 11.9999 8 14.0054 8 16.0011ZM11.458 12.9999C12.8322 12.9999 13.9397 14.3521 13.916 16.0011C13.9182 17.6477 12.8322 18.9999 11.458 18.9999C10.1075 18.9999 9 17.6477 9 16.0011C9 14.3545 10.0839 12.9999 11.458 12.9999ZM17.0836 16.0011C17.0836 18.0046 18.4619 19.9999 20.5416 19.9999C22.648 19.9999 23.9964 18.0027 23.9996 16.0082C24.0253 13.9862 22.6377 11.9999 20.5416 11.9999C18.4318 11.9999 17.0836 14.0054 17.0836 16.0011ZM20.5416 12.9999C21.9158 12.9999 23.0233 14.3521 22.9997 16.0011C22.9997 17.6477 21.9158 18.9999 20.5416 18.9999C19.1912 18.9999 18.0836 17.6477 18.0836 16.0011C18.0836 14.3545 19.1675 12.9999 20.5416 12.9999Z" fill="white"/>
</svg>
