<svg width="32" height="32" viewBox="0 0 32 32" fill="none" xmlns="http://www.w3.org/2000/svg">
<path fill-rule="evenodd" clip-rule="evenodd" d="M17.4231 4.5H14.5769H14.5768C12.9162 4.5 11.6393 4.5 10.6185 4.58341C9.58706 4.66768 8.77303 4.83958 8.04906 5.20846C6.82601 5.83163 5.83163 6.82601 5.20846 8.04906C4.83958 8.77303 4.66768 9.58706 4.58341 10.6185C4.5 11.6393 4.5 12.9162 4.5 14.5768V14.5769V17.4231V17.4232C4.5 19.0838 4.5 20.3607 4.58341 21.3815C4.66768 22.4129 4.83958 23.227 5.20846 23.9509C5.83163 25.174 6.82601 26.1684 8.04906 26.7915C8.77303 27.1604 9.58706 27.3323 10.6185 27.4166C11.6394 27.5 12.9162 27.5 14.5768 27.5H14.5769H14.5769H14.5769H17.4231H17.4231H17.4231H17.4232C19.0838 27.5 20.3606 27.5 21.3815 27.4166C22.4129 27.3323 23.227 27.1604 23.9509 26.7915C25.174 26.1684 26.1684 25.174 26.7915 23.9509C27.1604 23.227 27.3323 22.4129 27.4166 21.3815C27.5 20.3606 27.5 19.0838 27.5 17.4232V17.4231V17.4231V17.4231V14.5769V14.5769V14.5769V14.5768C27.5 12.9162 27.5 11.6394 27.4166 10.6185C27.3323 9.58706 27.1604 8.77303 26.7915 8.04906C26.1684 6.82601 25.174 5.83163 23.9509 5.20846C23.227 4.83958 22.4129 4.66768 21.3815 4.58341C20.3607 4.5 19.0838 4.5 17.4232 4.5H17.4231ZM8.50305 6.09946C9.06255 5.81438 9.73034 5.6593 10.6999 5.58008C11.6754 5.50039 12.9116 5.5 14.6 5.5H17.4C19.0884 5.5 20.3246 5.50039 21.3001 5.58008C22.2697 5.6593 22.9374 5.81438 23.4969 6.09946C24.5318 6.62677 25.3732 7.46816 25.9005 8.50305C26.1856 9.06255 26.3407 9.73034 26.4199 10.6999C26.4996 11.6754 26.5 12.9116 26.5 14.6V17.4C26.5 19.0884 26.4996 20.3246 26.4199 21.3001C26.3407 22.2697 26.1856 22.9374 25.9005 23.4969C25.3732 24.5318 24.5318 25.3732 23.4969 25.9005C22.9374 26.1856 22.2697 26.3407 21.3001 26.4199C20.3246 26.4996 19.0884 26.5 17.4 26.5H14.6C12.9116 26.5 11.6754 26.4996 10.6999 26.4199C9.73034 26.3407 9.06255 26.1856 8.50305 25.9005C7.46816 25.3732 6.62677 24.5318 6.09946 23.4969C5.81438 22.9374 5.6593 22.2697 5.58008 21.3001C5.50039 20.3246 5.5 19.0884 5.5 17.4V14.6C5.5 12.9116 5.50039 11.6754 5.58008 10.6999C5.6593 9.73034 5.81438 9.06255 6.09946 8.50305C6.62677 7.46816 7.46816 6.62677 8.50305 6.09946ZM11.5 16C11.5 13.5147 13.5147 11.5 16 11.5C18.4853 11.5 20.5 13.5147 20.5 16C20.5 18.4853 18.4853 20.5 16 20.5C13.5147 20.5 11.5 18.4853 11.5 16ZM16 10.5C12.9624 10.5 10.5 12.9624 10.5 16C10.5 19.0376 12.9624 21.5 16 21.5C19.0376 21.5 21.5 19.0376 21.5 16C21.5 12.9624 19.0376 10.5 16 10.5ZM22.5 8.5C21.9477 8.5 21.5 8.94772 21.5 9.5C21.5 10.0523 21.9477 10.5 22.5 10.5C23.0523 10.5 23.5 10.0523 23.5 9.5C23.5 8.94772 23.0523 8.5 22.5 8.5Z" fill="white"/>
</svg>
