<?xml version="1.0" encoding="utf-8"?>
<!-- Generator: Adobe Illustrator 23.1.0, SVG Export Plug-In . SVG Version: 6.00 Build 0)  -->
<svg version="1.1" id="Слой_1" xmlns="http://www.w3.org/2000/svg" xmlns:xlink="http://www.w3.org/1999/xlink" x="0px" y="0px"
	 viewBox="0 0 40.54 36.1" style="enable-background:new 0 0 40.54 36.1;" xml:space="preserve">
<style type="text/css">
	.st0{fill:#88F4F4;}
</style>
<g>
	<path class="st0" d="M29.67,25.57c-1.57,2.59-3.5,2.71-3.5,2.71s-1.92,0.08-4.34,0.13v-3.57h2.95c0,0,5.73-3.92,5.48-8.74
		c-0.24-4.82-7.53-10.97-7.53-10.97l-0.9-0.21V2.37c0-1.03-0.84-1.87-1.87-1.87c-1.03,0-1.87,0.84-1.87,1.87v1.7l-5.3-1.22
		c0,0,4.04,6.03,4.22,11.99c0.18,5.97-4.22,10-4.22,10h5.3v3.62c-2.18,0.01-4.23-0.03-5.3-0.19c-2.95-0.42-2.23-3.92-2.23-3.92h-10
		C0.99,34.49,9.3,35.52,9.3,35.52s16.39,0.18,19.59,0c3.19-0.18,6.03-5.79,6.51-7.04c0.48-1.26,2.05-2.18,2.05-2.18l2.53-1.45V22.5
		L29.67,25.57z"/>
	<path class="st0" d="M11.59,6.83L2.37,20.81h9.58C16.47,15.09,11.59,6.83,11.59,6.83z"/>
</g>
</svg>
