<svg width="24" height="24" viewBox="0 0 24 24" fill="none" xmlns="http://www.w3.org/2000/svg">
<path d="M17.781 5.25738L18.115 5.62944C18.3216 5.44396 18.6367 5.46083 18.8213 5.66576C20.3876 7.40685 21.25 9.65665 21.25 12.0003C21.25 14.3438 20.3867 16.5937 18.8212 18.335L18.8205 18.3357C18.7231 18.4445 18.5881 18.5003 18.45 18.5003C18.3309 18.5003 18.2113 18.4579 18.1156 18.3717L18.1155 18.3716C17.9105 18.1871 17.8935 17.8714 18.0786 17.6659L18.0788 17.6656C19.4784 16.1088 20.25 14.0967 20.25 12.0003C20.25 9.90394 19.4784 7.89181 18.0788 6.33498L18.0786 6.33472C17.8935 6.12919 17.9105 5.81348 18.1155 5.62903L17.781 5.25738ZM17.781 5.25738C17.371 5.62638 17.337 6.25825 17.707 6.66925L19.193 5.33136C18.823 4.92036 18.192 4.88838 17.781 5.25738ZM11.2921 19.767L11.2913 19.7673C10.9505 19.9248 10.5931 20.0003 10.24 20.0003C9.663 20.0003 9.09243 19.7954 8.62469 19.3939L8.62461 19.3938L6.03062 17.168L6.03041 17.1678C5.85087 17.0139 5.62126 16.9265 5.38164 16.9263H5.38098L4.64367 16.9254H4.64338C3.60142 16.9246 2.75 16.0723 2.75 15.0252V8.97443C2.75 7.92867 3.60032 7.07665 4.64317 7.07428L5.38164 7.0733L5.38164 7.07331L5.38522 7.07328C5.61856 7.07131 5.84776 6.9882 6.02903 6.83311L6.02951 6.83269L8.62552 4.60589L8.6257 4.60574C9.37552 3.96196 10.3963 3.81955 11.2912 4.23321L11.2921 4.23366C12.1934 4.64795 12.75 5.51626 12.75 6.51129V17.4903C12.75 18.4833 12.1934 19.3527 11.2921 19.767ZM15.4483 8.60266L15.4489 8.60223C15.6667 8.43639 15.9805 8.47843 16.1491 8.69911C16.8689 9.6478 17.251 10.7891 17.251 12.0013C17.251 13.2137 16.8697 14.3541 16.1499 15.3027C16.0509 15.4328 15.9025 15.5013 15.75 15.5013C15.6447 15.5013 15.5387 15.4685 15.448 15.3999C15.2282 15.2328 15.1854 14.9196 15.3521 14.6998C15.9419 13.9236 16.251 12.9877 16.251 12.0013C16.251 11.0145 15.9407 10.0789 15.3524 9.30315L15.3522 9.30297C15.1853 9.08304 15.2281 8.76979 15.4483 8.60266Z" stroke="white"/>
</svg>
