<svg width="32" height="32" viewBox="0 0 32 32" fill="none" xmlns="http://www.w3.org/2000/svg">
<path fill-rule="evenodd" clip-rule="evenodd" d="M30.1152 7.94943C30.0123 10.7525 28.63 11.8157 27.4523 12.3629C27.4001 18.8933 21.8052 26.2028 11.8622 26.2028C8.79038 26.2028 3.03115 24.9239 1.89551 21.9986C5.34942 22.5512 7.68417 22.0041 8.77611 21.6101C7.42519 20.9495 5.86851 20.1574 5.19524 17.4644H5.70373C4.59959 16.6708 3.4076 14.5103 4.00709 11.9253L4.41369 12.2016C4.20429 11.6439 4.04812 10.9463 4.04812 10.3169C4.04812 9.27582 4.3661 8.30684 4.90562 7.48416L5.60941 6.41102L6.47799 7.35575C8.58868 9.65148 11.6592 11.2607 15.1778 11.6869C15.2145 8.5463 18.0606 6.20282 21.3058 6.20282C22.8335 6.20282 24.2467 6.70854 25.3327 7.56231C26.2287 7.36394 28.9761 6.26094 29.7389 5.79736C29.7389 5.79736 29.6632 7.26085 28.92 8.54325C29.5528 8.34856 30.1152 7.94943 30.1152 7.94943ZM29 9.33536C27.2759 10.0668 26.0536 10.0494 26.0536 10.0494C27.1128 9.48742 27.9259 8.59486 28.3063 7.5337C27.3142 8.05602 26.2177 8.43288 25.0503 8.63784C24.1141 7.75519 22.7826 7.20312 21.3057 7.20312C18.4749 7.20312 16.1774 9.23949 16.1774 11.7486C16.1774 12.1056 16.2221 12.4527 16.3117 12.7833C12.0486 12.5949 8.27048 10.7833 5.74176 8.03288C5.30166 8.70395 5.04804 9.48412 5.04804 10.3172C5.04804 11.894 5.95435 13.2858 7.3306 14.099C6.68786 14.1782 5.78457 14.0082 5.04804 13.4343C5.04804 15.636 6.77488 17.6263 9.12084 18.0428C8.69193 18.1453 8.23691 18.2015 7.7707 18.2015C7.43876 18.2015 7.11801 18.1717 6.80471 18.1188C7.45741 19.9238 9.35208 21.2395 11.5936 21.2759C9.83694 22.4957 7.62897 23.223 5.22333 23.223C4.80934 23.223 4.4028 23.1998 4 23.1602C6.26764 24.4494 8.96419 25.2031 11.8622 25.2031C21.2945 25.2031 26.4526 18.2775 26.4526 12.2709C26.4526 12.0725 26.4489 11.8775 26.4377 11.6825C27.7069 11.294 28.569 10.4759 29 9.33536Z" fill="white"/>
</svg>
