<svg width="40" height="42" viewBox="0 0 40 42" fill="none" xmlns="http://www.w3.org/2000/svg">
<path d="M30.1883 11.0429C30.457 10.7625 30.459 10.7605 30.1883 11.0429C28.2527 13.063 26.2748 15.1275 24.2547 17.2353C25.2972 18.3504 26.3257 19.4513 27.3942 20.5945C24.8566 23.2404 22.3396 25.8635 19.8724 28.4357C18.8061 27.4646 17.7559 26.5076 16.7643 25.6037C16.0909 26.2435 15.3158 26.9428 14.5818 27.6833C13.4895 28.7843 12.4221 29.9091 11.3568 31.0361C11.2496 31.1497 11.2269 31.3446 11.1652 31.5016C10.6639 31.8978 10.3684 31.5687 10.0707 31.2017C9.8152 30.8867 9.54022 30.5868 9.28906 30.2967C9.53373 29.9481 9.77514 29.6038 10.0176 29.2595C10.1681 29.1978 10.3597 29.1751 10.4647 29.0679C12.0973 27.3888 13.719 25.6978 15.3959 23.956C14.3556 22.8528 13.3217 21.7583 12.2499 20.6227C14.7756 18.0018 17.2958 15.3873 19.7858 12.8021C20.8456 13.7981 21.8654 14.7551 22.9134 15.7392C24.8761 13.705 26.8767 11.6318 28.8773 9.5587C28.9055 9.48616 28.9325 9.41471 28.9607 9.34326C29.5745 9.99389 30.1872 10.6434 30.8011 11.2941L30.1883 11.0429ZM22.8549 18.7866C22.5377 19.0898 22.2054 19.408 21.8687 19.7296C21.3956 19.2543 20.9539 18.8115 20.4884 18.3449C20.8348 17.9725 21.1726 17.6088 21.5255 17.2288C20.9571 16.629 20.4202 16.0629 19.8778 15.4902C19.2261 16.1711 18.6328 16.7904 18.0082 17.4431C19.6321 19.1406 21.2332 20.8143 22.8701 22.5259C23.512 21.8547 24.114 21.2257 24.7689 20.5415C24.1053 19.9331 23.4958 19.3745 22.8549 18.7866ZM21.676 23.9744C19.9601 22.1989 18.3286 20.5123 16.8466 18.9782C16.1743 19.5574 15.5626 20.0836 14.8914 20.6617C15.554 21.2614 16.1775 21.8244 16.8758 22.4544C17.1183 22.1697 17.4171 21.8179 17.6239 21.5743C18.124 22.0171 18.5776 22.4187 19.054 22.8398C18.7238 23.1992 18.4217 23.5273 18.0731 23.9062C18.6567 24.5276 19.2272 25.1349 19.7154 25.6545C20.3909 25.0754 21.0188 24.5373 21.676 23.9744Z" fill="#FADBAD"/>
<path d="M20.0905 34.1079C20.1295 34.1491 20.1685 34.1902 20.2064 34.2313C21.2846 35.3507 22.3618 36.4701 23.44 37.5895C23.5137 37.6621 23.5873 37.7346 23.6609 37.8082L23.6566 37.805C23.6944 37.8428 23.7323 37.8807 23.7702 37.9186L23.7648 37.9132C23.8027 37.9511 23.8406 37.989 23.8785 38.0269L23.8731 38.0215C23.911 38.0594 23.9488 38.0973 23.9867 38.1351L23.9813 38.1297C24.0192 38.1676 24.0571 38.2055 24.095 38.2434L24.0896 38.238C24.1275 38.2759 24.1654 38.3138 24.2033 38.3517L24.1978 38.3462C24.2357 38.3841 24.2736 38.422 24.3115 38.4599L24.3061 38.4545C24.344 38.4924 24.3819 38.5303 24.4198 38.5682L24.4144 38.5628C24.4523 38.6006 24.4901 38.6385 24.528 38.6764L24.5226 38.671C24.5605 38.7089 24.5984 38.7468 24.6363 38.7847L24.6309 38.7793C24.6688 38.8172 24.7067 38.8551 24.7445 38.893L24.7391 38.8875C24.777 38.9254 24.8149 38.9633 24.8528 39.0012L24.8474 38.9958C24.8853 39.0337 24.9232 39.0716 24.9611 39.1095L24.9557 39.104C24.9935 39.1419 25.0314 39.1798 25.0693 39.2177L25.0639 39.2123C25.1018 39.2502 25.1397 39.2881 25.1776 39.3271L25.1722 39.3206C25.1419 39.3942 25.1126 39.4678 25.0823 39.5414C25.0423 39.5414 25.0022 39.5425 24.9611 39.5436C24.6016 39.4711 24.2422 39.3996 23.8839 39.3271C23.8438 39.3271 23.8038 39.3249 23.7637 39.3238C23.5212 39.2848 23.2787 39.2459 23.0362 39.2069C22.9193 39.1777 22.8035 39.1484 22.6866 39.1192C22.5047 39.1311 22.3228 39.1441 22.1409 39.156C22.1258 39.1831 22.103 39.2037 22.0738 39.2156C22.024 39.2534 21.9742 39.2903 21.9244 39.3281L21.9288 39.3238C21.8909 39.3617 21.8541 39.3985 21.8162 39.4364L21.8205 39.4321C21.7826 39.47 21.7458 39.5068 21.7079 39.5447L21.7122 39.5403C21.6743 39.5782 21.6375 39.615 21.5996 39.6529L21.604 39.6486C21.5661 39.6865 21.5293 39.7233 21.4914 39.7612L21.4957 39.7569C21.4578 39.7947 21.421 39.8315 21.3831 39.8694L21.3875 39.8651C21.3496 39.903 21.3117 39.9409 21.2749 39.9777L21.2803 39.9723C21.2424 40.0102 21.2045 40.0481 21.1666 40.086L21.172 40.0805C21.1341 40.1282 21.0962 40.1758 21.0584 40.2234C20.7585 40.5331 20.4467 40.834 20.1609 41.1566C19.913 41.437 19.7008 41.3645 19.4843 41.1361C18.9765 40.6034 18.471 40.0676 17.9622 39.5349C17.6428 39.2004 17.3137 39.1398 16.8298 39.2708C16.0828 39.4732 15.2914 39.5122 14.5196 39.6215C14.4784 39.5739 14.4373 39.5252 14.3951 39.4775C14.9851 38.8648 15.574 38.2531 16.2062 37.5971C15.836 37.2041 15.4722 36.8176 15.1085 36.4301C15.0706 36.3835 15.0327 36.3381 14.9937 36.2926L14.9991 36.298C14.9612 36.2601 14.9234 36.2222 14.8855 36.1843L14.8909 36.1897C14.853 36.1518 14.8151 36.114 14.7772 36.0761L14.7815 36.0804C14.7436 36.0425 14.7058 36.0046 14.669 35.9678L14.6744 35.9732C14.6365 35.9353 14.5986 35.8974 14.5607 35.8606L14.565 35.865C14.5271 35.8271 14.4892 35.7892 14.4524 35.7524L14.4578 35.7567C14.42 35.7188 14.3821 35.6809 14.3442 35.643L14.3485 35.6484C14.3117 35.5748 14.2738 35.5012 14.237 35.4276L14.2402 35.4308C14.2034 35.394 14.1666 35.3572 14.1287 35.3193L14.132 35.3226C14.0952 35.2858 14.0584 35.249 14.0216 35.2122L14.0237 35.2143C13.9869 35.1775 13.9501 35.1407 13.9133 35.1039L13.9155 35.1061C13.8787 35.0693 13.8419 35.0325 13.805 34.9957L13.8072 34.9978C13.7704 34.961 13.7336 34.9242 13.6968 34.8874L13.699 34.8896C13.6621 34.8527 13.6253 34.8159 13.5885 34.7791L13.5907 34.7813C13.5539 34.7445 13.5171 34.7077 13.4803 34.6709L13.4814 34.673C13.4445 34.6362 13.4077 34.5994 13.372 34.5637L13.3731 34.5648C13.3363 34.528 13.2995 34.4912 13.2638 34.4554L13.2648 34.4565C13.228 34.4197 13.1912 34.3829 13.1555 34.3472L13.1577 34.3483C13.1068 34.3115 13.0559 34.2747 13.005 34.2378C12.5969 33.8351 12.1996 33.4205 11.7763 33.0329C11.4688 32.7525 11.4764 32.4916 11.7406 32.2037C11.9961 32.0012 12.2559 31.8042 12.5059 31.5953C12.6553 31.4708 12.7907 31.3279 12.9596 31.1666C14.4568 32.7439 15.941 34.3071 17.4241 35.8693C17.8647 35.4417 18.2837 35.0335 18.7438 34.5864C17.2293 33.0069 15.7364 31.4502 14.1612 29.8079C14.6852 29.4063 15.2092 29.0036 15.7754 28.5684C16.675 29.5048 17.7521 30.6069 18.7979 31.7382C18.9267 31.8778 18.8867 32.1734 18.9257 32.3964C18.969 32.6172 18.9441 32.8911 19.0686 33.047C19.3739 33.4302 19.7473 33.7593 20.0938 34.1101L20.0905 34.1079ZM20.9696 37.3384C20.6232 36.9551 20.3125 36.6119 19.9714 36.2352C19.5936 36.639 19.2439 37.0136 18.8466 37.4369C19.1682 37.7746 19.507 38.1319 19.8653 38.5076C20.2562 38.0929 20.6004 37.7292 20.9696 37.3373V37.3384Z" fill="#FADBAD"/>
<path d="M36.1375 24.1698C34.768 22.7906 33.4018 21.4092 32.0269 20.0365C31.9328 19.9423 31.7704 19.8384 31.6556 19.8536C31.0256 19.9391 30.6694 19.5548 30.2905 19.152C29.4049 18.2091 28.4966 17.2878 27.5537 16.3113C28.0528 15.8502 28.514 15.4247 28.9925 14.983C31.2994 17.2597 33.6281 19.5569 35.9578 21.8552C36.4082 21.3952 36.7936 21.0011 37.2136 20.5724C36.9624 20.3515 36.6864 20.108 36.3768 19.8362C36.2685 19.9347 36.1159 20.0733 35.9123 20.2584C35.4457 19.8525 34.9802 19.4476 34.5115 19.0394C34.5743 18.9442 34.6013 18.8673 34.6565 18.8283C35.0582 18.5415 34.9207 18.3152 34.6306 18.0207C33.3011 16.674 31.9912 15.3067 30.6759 13.947C30.6023 13.8701 30.5319 13.79 30.468 13.7196C30.8599 13.2206 31.241 12.7356 31.6221 12.2506C31.6459 12.2517 31.6675 12.2484 31.6892 12.2397C32.08 12.5602 32.4719 12.8806 32.8627 13.2011C32.9006 13.2487 32.9374 13.2963 32.9753 13.344L32.971 13.3397C33.0088 13.3775 33.0457 13.4143 33.0835 13.4522L33.0792 13.4479C33.1171 13.4858 33.1539 13.5226 33.1918 13.5605L33.1886 13.5573C33.2254 13.5941 33.2633 13.6319 33.3001 13.6688L33.2968 13.6655C33.3336 13.7023 33.3715 13.7402 33.4083 13.777L33.4062 13.7738C33.443 13.8474 33.4798 13.9199 33.5166 13.9935L33.5144 13.9914C33.5512 14.0282 33.588 14.065 33.6248 14.1018L33.6227 14.0996C33.6595 14.1364 33.6963 14.1732 33.7331 14.21L33.7309 14.2079C33.7677 14.2447 33.8045 14.2815 33.8414 14.3183L33.8392 14.3161C33.876 14.3529 33.9139 14.3908 33.9507 14.4276L33.9464 14.4233C33.9875 14.4612 34.0276 14.4991 34.0687 14.537C34.8795 15.2926 35.6904 16.0472 36.5446 16.8429C36.8683 16.6275 37.0339 15.9389 37.7538 16.018C37.6888 16.4521 37.6542 16.8613 37.5622 17.2575C37.4669 17.67 37.5644 17.9893 37.8588 18.2849C38.5289 18.9572 39.1904 19.6381 39.8421 20.3277C39.932 20.4219 39.9504 20.5832 40.0012 20.7142C39.932 20.7488 39.8616 20.7835 39.7923 20.8181L39.7956 20.8149C39.7588 20.8517 39.7219 20.8885 39.6851 20.9253L39.6873 20.9231C39.6505 20.96 39.6137 20.9968 39.5769 21.0336L39.579 21.0314C39.5422 21.0682 39.5054 21.105 39.4686 21.1418L39.4708 21.1386C39.434 21.2122 39.3972 21.2858 39.3604 21.3594L39.3636 21.3562L39.1428 21.577L39.1471 21.5716C39.1092 21.6095 39.0713 21.6463 39.0345 21.6842L39.0388 21.6799C39.0009 21.7178 38.9641 21.7546 38.9262 21.7925L38.9306 21.7881C38.8927 21.826 38.8559 21.8628 38.818 21.9007L38.8223 21.8964C38.7844 21.944 38.7465 21.9917 38.7086 22.0382C38.4055 22.3684 38.1468 22.7635 37.7874 23.0136C37.3294 23.333 37.4063 23.7379 37.4279 24.1622C37.4474 24.5357 37.4723 24.9081 37.494 25.2816C37.3922 25.2719 37.2905 25.2621 37.1887 25.2524L37.1952 25.2578C37.1573 25.2199 37.1183 25.1809 37.0804 25.1431L37.0869 25.1495C37.049 25.1117 37.0101 25.0727 36.9722 25.0348L36.9787 25.0413C36.9408 25.0034 36.9018 24.9644 36.8639 24.9265L36.8704 24.933C36.8325 24.8951 36.7936 24.8562 36.7557 24.8183L36.7622 24.8248C36.7243 24.7869 36.6853 24.7479 36.6474 24.71L36.6539 24.7165C36.616 24.6786 36.577 24.6397 36.5391 24.6018L36.5456 24.6083C36.5078 24.5704 36.4688 24.5314 36.4309 24.4935L36.4363 24.5C36.3367 24.3907 36.2371 24.2813 36.1375 24.172V24.1698Z" fill="#FADBAD"/>
<path d="M4.17319 17.2398C5.27309 18.3841 6.36975 19.5316 7.47723 20.6683C7.6342 20.8296 7.84206 21.0407 8.03368 21.0483C8.59337 21.07 8.89758 21.4315 9.23209 21.7823C10.1523 22.7458 11.0757 23.7071 12.0555 24.728C11.5272 25.16 11.0292 25.5659 10.4771 26.0174C8.42665 23.8684 6.24092 21.5788 4.08658 19.3216C3.62107 19.7698 3.17721 20.1985 2.69329 20.6662C2.9975 20.9866 3.30062 21.307 3.69468 21.7228C3.87006 21.4543 4.01513 21.2313 4.1721 20.992C4.70257 21.5181 5.14643 21.9588 5.62493 22.4329C5.45929 22.6278 5.30124 22.814 5.0923 23.0597C6.48017 24.5126 7.86912 25.9665 9.33602 27.5027C7.87995 28.9382 9.33602 27.5027 7.87995 28.9382C6.43578 27.4323 5.02951 25.9654 3.58967 24.4649C3.18912 24.7854 2.82862 25.0744 2.46703 25.3635C2.42698 25.3332 2.38692 25.3039 2.34687 25.2736C2.3761 25.0181 2.35445 24.7432 2.4443 24.5104C2.79397 23.6054 2.22237 23.0619 1.69082 22.5055C1.23072 22.0226 0.767378 21.5387 0.267225 21.0981C-0.12467 20.7528 -0.0564683 20.5319 0.283463 20.1866C1.02611 19.432 1.73304 18.6396 2.41399 17.8287C2.54823 17.6685 2.55148 17.3459 2.52225 17.1099C2.4627 16.6324 2.33821 16.1637 2.24077 15.6917C2.34362 15.6311 2.44647 15.5694 2.54931 15.5087L2.5439 15.5044C2.58179 15.5423 2.62076 15.5802 2.65865 15.6181L2.65324 15.6116C2.69113 15.6863 2.72794 15.7599 2.76583 15.8346L2.7615 15.8303C2.79939 15.8681 2.8362 15.905 2.87409 15.9428L2.86976 15.9385C2.90765 15.9764 2.94445 16.0132 2.98234 16.0511L2.9791 16.0479C3.0159 16.0847 3.0538 16.1226 3.0906 16.1594L3.08736 16.1561C3.12416 16.1929 3.16205 16.2308 3.19886 16.2676L3.19561 16.2644C3.23242 16.3012 3.27031 16.3391 3.30712 16.3759L3.30387 16.3726C3.34068 16.4094 3.37857 16.4473 3.41538 16.4841L3.41213 16.4809C3.44894 16.5177 3.48683 16.5556 3.52364 16.5924L3.52039 16.5891C3.55828 16.627 3.59508 16.6638 3.63297 16.7017L3.62865 16.6974C3.66654 16.7353 3.70334 16.7721 3.74123 16.81L3.73691 16.8057C3.7748 16.8436 3.8116 16.8804 3.84949 16.9182L3.84516 16.9139C3.88305 16.9518 3.91986 16.9886 3.95775 17.0265L3.95342 17.0222C4.02704 17.0958 4.09957 17.1683 4.17319 17.2419V17.2398Z" fill="#FADBAD"/>
<path d="M28.0995 8.65042C27.6838 9.04664 27.2681 9.44178 26.8026 9.88564C25.4201 8.46205 24.0366 7.03737 22.6823 5.64192C22.2417 6.06088 21.8292 6.45385 21.3875 6.8739C21.4655 6.97349 21.5596 7.09366 21.643 7.19975C21.2695 7.60681 20.8982 8.01169 20.5691 8.37111C20.2627 7.95864 20.018 7.56242 19.7095 7.22682C18.7579 6.19512 17.7858 5.18182 16.8071 4.1761C16.6826 4.04835 16.4693 4.00614 16.2972 3.92494C16.2593 3.92386 16.2225 3.92278 16.1846 3.92169C15.809 3.40747 15.443 2.88566 15.0533 2.38226C14.8617 2.13435 14.6257 1.92216 14.4092 1.69266C14.4503 1.63744 14.4915 1.58223 14.5326 1.52702C15.3997 1.77385 16.2647 2.02934 17.1362 2.25993C17.2726 2.29565 17.4761 2.26426 17.5844 2.1809C17.8226 1.99686 18.0196 1.76086 18.2329 1.54542C18.2729 1.50753 18.313 1.46964 18.3541 1.43175L18.3498 1.43608C18.3866 1.39927 18.4245 1.36138 18.4613 1.32458L18.4591 1.32674C18.4959 1.28994 18.5327 1.25313 18.5695 1.21632L18.5674 1.21848C18.6042 1.18168 18.641 1.14487 18.6778 1.10806L18.6756 1.11023C18.7124 1.02903 18.7493 0.947838 18.7861 0.865562C18.8846 0.767047 18.9842 0.668531 19.0827 0.570016C19.1282 0.532125 19.1736 0.49532 19.2202 0.457429L19.2158 0.461757C19.2537 0.423867 19.2905 0.387061 19.3284 0.349171L19.3241 0.353499C19.362 0.315609 19.3988 0.278803 19.4367 0.240913L19.4324 0.245241C19.4703 0.20735 19.5071 0.170545 19.545 0.132654L19.5406 0.136982C19.5785 0.0980094 19.6164 0.0590379 19.6532 0.0200649C20.1891 -0.104432 20.372 0.380564 20.6535 0.644714C21.1363 1.09615 21.5596 1.61146 21.9981 2.10837C22.1702 2.30323 22.3153 2.35303 22.5935 2.25885C23.2874 2.02501 24.0041 1.85721 24.7154 1.67642C24.8431 1.64394 24.9871 1.67209 25.1235 1.67209C25.1581 1.71756 25.1928 1.76302 25.2263 1.80849C24.9027 2.16141 24.5995 2.53815 24.2499 2.86293C23.6025 3.46268 23.5819 3.67703 24.1882 4.29518C25.0943 5.21754 25.9982 6.14207 26.9033 7.06443C26.9412 7.10124 26.9791 7.13805 27.0169 7.17377L27.0104 7.16728C27.0483 7.20517 27.0862 7.24306 27.1241 7.28095L27.1187 7.27553C27.1566 7.31342 27.1945 7.35132 27.2324 7.38921L27.227 7.38379C27.2648 7.42168 27.3027 7.45957 27.3417 7.49855L27.3352 7.49205C27.3731 7.52994 27.4121 7.56891 27.45 7.6068L27.4435 7.60031C27.4814 7.6382 27.5203 7.67717 27.5582 7.71506L27.5528 7.70857C27.5896 7.78218 27.6275 7.85688 27.6643 7.9305L27.6611 7.92725C27.6979 7.96406 27.7347 8.00086 27.7726 8.03767L27.7704 8.03551C27.8072 8.07232 27.8429 8.10804 27.8798 8.14485C27.9155 8.18057 27.9523 8.2163 27.988 8.25311C28.0248 8.28991 28.0605 8.32672 28.0974 8.36353L28.0952 8.36028C28.0952 8.45663 28.0974 8.55407 28.0984 8.65042H28.0995ZM18.7514 3.96175C19.1725 4.40777 19.5742 4.83323 19.9184 5.19806C20.3374 4.81915 20.7185 4.47489 21.171 4.06676C20.7087 3.64131 20.2768 3.24291 19.8297 2.83045C19.4778 3.19961 19.1336 3.56119 18.7514 3.96175Z" fill="#FADBAD"/>
<path d="M15.3252 4.18359C15.3252 4.18359 16.8885 5.62015 16.9773 5.72733C15.4669 4.31401 15.4669 4.31401 16.9773 5.72733C15.0568 7.73552 13.1482 9.73072 11.1811 11.7865C10.9419 11.4715 11.1811 11.7865 9.83335 10.4268C11.1811 11.7865 11.3478 11.5874 11.1811 11.7865C9.83335 10.4268 11.1811 11.7865 9.83335 10.4268C9.8052 10.403 10.236 9.83356 10.3367 9.72638C11.1194 8.89171 11.6012 8.37208 12.3925 7.54715C13.3149 6.5869 14.2437 5.63315 15.1585 4.66532C15.4064 4.40333 15.5123 4.35581 15.3252 4.18359Z" fill="#FADBAD"/>
<path d="M28.8979 29.8048C29.2108 30.1447 29.5247 30.4857 29.8527 30.843C29.7618 30.9653 29.7077 31.0573 29.6362 31.1309C28.3967 32.4073 27.1517 33.6782 25.9165 34.9579C25.4185 35.4743 24.9443 36.0145 24.4485 36.533C24.3294 36.6575 24.1648 36.7398 24.0219 36.8426C23.9895 36.8048 23.9581 36.7669 23.9256 36.729C23.4882 36.336 23.0509 35.943 22.5713 35.5132C24.363 33.6555 26.0518 31.9039 27.7417 30.1523C27.8965 29.9996 28.0513 29.847 28.2061 29.6933C28.2083 29.6554 28.2094 29.6175 28.2115 29.5796L28.205 29.585C28.4356 29.6586 28.6662 29.7322 28.8979 29.8059V29.8048Z" fill="#FADBAD"/>
<path d="M29.8868 27.7437C31.5695 29.19 31.5695 29.19 30.5443 27.0779C31.7546 25.9379 33.0126 24.7536 34.2857 23.5552C34.6862 23.9243 35.1344 24.3368 35.5826 24.7493C35.5761 24.8121 35.5685 24.8759 35.562 24.9387C35.5296 24.9517 35.5068 24.9744 35.4971 25.0069C35.2752 25.2408 35.0532 25.4746 34.8302 25.7084C34.2878 26.2768 33.7455 26.8462 33.2031 27.4146C33.1609 27.4525 33.1197 27.4904 33.0775 27.5283L33.0818 27.5239C33.045 27.5607 33.0071 27.5986 32.9703 27.6354L32.9725 27.6333C32.9357 27.6701 32.8989 27.7069 32.8621 27.7437L32.8642 27.7415C32.8274 27.7783 32.7906 27.8151 32.7538 27.8519L32.756 27.8498C32.7192 27.8866 32.6824 27.9234 32.6456 27.9602L32.6477 27.958C32.6109 28.0317 32.5741 28.1053 32.5373 28.1778L32.5406 28.1746C32.4669 28.2482 32.3944 28.3207 32.3208 28.3943L32.324 28.39C32.2862 28.4279 32.2493 28.4647 32.2114 28.5026L32.2158 28.4972C32.1779 28.5448 32.14 28.5924 32.1021 28.639C31.9419 28.8046 31.7806 28.9713 31.5695 29.19C29.9232 27.7415 31.5695 29.19 30.5443 27.0779L29.8868 27.7437Z" fill="#FADBAD"/>
<path d="M8.63419 12.489C8.91241 12.8192 9.18955 13.1483 9.51324 13.5326C8.30616 14.7992 7.09042 16.0756 5.90066 17.3238C5.51959 17.0597 5.16992 16.8161 4.81916 16.5736C4.37098 15.9522 4.37206 15.8937 4.90252 15.3698C5.33339 14.9443 5.77184 14.5264 6.20595 14.1053C6.25034 14.0674 6.29473 14.0295 6.33911 13.9906L6.33478 13.9949C6.37159 13.9581 6.4084 13.9202 6.44629 13.8834L6.44412 13.8855C6.48093 13.8487 6.51774 13.8119 6.55454 13.7751L6.55238 13.7773C6.58919 13.7405 6.626 13.7037 6.6628 13.6669L6.66064 13.669C6.69745 13.6322 6.73425 13.5954 6.77106 13.5586L6.7689 13.5608C6.80571 13.524 6.84251 13.4872 6.87932 13.4503L6.87716 13.4525C6.91396 13.4157 6.95077 13.3789 6.98758 13.3421L6.98541 13.3453C7.02222 13.2717 7.05903 13.1981 7.09584 13.1245L7.09259 13.1288C7.13048 13.0909 7.16729 13.0541 7.20518 13.0162L7.20085 13.0206C7.23874 12.9827 7.27663 12.9459 7.31344 12.908L7.30802 12.9134C7.34591 12.8755 7.3838 12.8376 7.42061 12.8008L7.41628 12.8051C7.45417 12.7672 7.49206 12.7293 7.52887 12.6925L7.52454 12.6969C7.56243 12.6601 7.60032 12.6243 7.63821 12.5875C7.76054 12.4923 7.87313 12.3775 8.00845 12.3071C8.26394 12.1751 8.48479 12.227 8.63311 12.4912L8.63419 12.489Z" fill="#FADBAD"/>
<path d="M8.5103 20.0644C8.01231 19.5816 7.57386 19.1572 7.08887 18.6873C10.7751 14.8496 14.4645 11.0097 18.2048 7.1167C18.6573 7.59195 19.0958 8.05205 19.5472 8.52622C15.8502 12.3921 12.177 16.232 8.5103 20.0655V20.0644Z" fill="#FADBAD"/>
<path d="M21.1831 33.7602C20.6852 33.2774 20.2467 32.853 19.7617 32.3831C23.4479 28.5454 27.1374 24.7055 30.8777 20.8125C31.3302 21.2878 31.7686 21.7479 32.2201 22.222C28.5231 26.0879 24.8499 29.9278 21.1831 33.7613V33.7602Z" fill="#FADBAD"/>
<path d="M25.5013 11.2491C24.9925 11.7341 24.5129 12.191 24.1167 12.5677C23.1142 11.6464 22.0933 10.7089 21.0107 9.71293C21.512 9.19438 21.919 8.74727 22.364 8.3413C22.4289 8.28176 22.7266 8.37161 22.8306 8.47662C23.7172 9.37409 24.5844 10.291 25.5002 11.248L25.5013 11.2491Z" fill="#FADBAD"/>
</svg>
