<svg width="22" height="20" viewBox="0 0 22 20" fill="none" xmlns="http://www.w3.org/2000/svg">
<g clip-path="url(#clip0_2966_166)">
<path d="M3.78614 0.0496216H17.9418V2.86493H21.9671L21.1235 5.68093H20.4092V17.0728C20.7674 17.0728 21.0582 17.3588 21.0582 17.7122V18.4801H21.1881C21.547 18.4801 21.8378 18.7668 21.8378 19.1202V19.8881H14.5648V19.1202C14.5648 18.7668 14.8556 18.4801 15.2145 18.4801H15.3444V17.7122C15.3444 17.4049 15.5644 17.1484 15.8573 17.0866L15.8435 10.8007C15.6139 8.28931 13.4723 6.321 10.864 6.321C8.25558 6.321 6.11402 8.28931 5.88439 10.8007L5.87064 17.0811C6.21714 17.1319 6.64339 17.3952 6.64339 17.7122V18.4801H6.77333C7.13152 18.4801 7.42233 18.7668 7.42233 19.1202V19.8881H0.149957V19.1202C0.149957 18.7668 0.440769 18.4801 0.798957 18.4801H0.928894V17.7122C0.928894 17.3588 1.21971 17.0728 1.57858 17.0728V5.68093H0.864269L0.0200195 2.86493H3.78614V0.0496216Z" fill="white"/>
<path d="M17.9414 0.0494661H17.9889V0.00271606H17.9414V0.0494661ZM3.7858 0.0494661V0.00271606H3.73836V0.0494661H3.7858ZM17.9414 2.86478H17.894V2.91153H17.9414V2.86478ZM21.9667 2.86478L22.0128 2.87853L22.0307 2.81803H21.9667V2.86478ZM21.1232 5.68078V5.72753H21.1582L21.1685 5.69384L21.1232 5.68078ZM20.4089 5.68078V5.63403H20.3614V5.68078H20.4089ZM20.4089 17.0727H20.3614V17.1194H20.4089V17.0727ZM21.0579 18.48H21.0104V18.5267H21.0579V18.48ZM21.8375 19.888V19.9347H21.8842V19.888H21.8375ZM14.5644 19.888H14.517V19.9347H14.5644V19.888ZM15.344 18.48V18.5267H15.3915V18.48H15.344ZM15.8569 17.0864L15.8672 17.1318L15.9044 17.1242V17.0864H15.8569ZM15.8432 10.8006H15.8906V10.7985L15.8899 10.7965L15.8432 10.8006ZM5.88405 10.8006L5.83661 10.7965V10.7985V10.8006H5.88405ZM5.8703 17.0809H5.82286L5.82217 17.1215L5.86273 17.1277L5.8703 17.0809ZM6.64305 18.48H6.59561V18.5267H6.64305V18.48ZM7.42198 19.888V19.9347H7.46942V19.888H7.42198ZM0.149608 19.888H0.102171V19.9347H0.149608V19.888ZM0.928546 18.48V18.5267H0.975983V18.48H0.928546ZM1.57823 17.0727V17.1194H1.62567V17.0727H1.57823ZM1.57823 5.68078H1.62567V5.63403H1.57823V5.68078ZM0.863921 5.68078L0.818546 5.69384L0.828171 5.72753H0.863921V5.68078ZM0.0196709 2.86478V2.81872H-0.0435791L-0.0257041 2.87853L0.0196709 2.86478ZM3.7858 2.86478V2.91153H3.83323V2.86478H3.7858ZM17.9414 0.00271606H3.7858V0.0955286H17.9414V0.00271606ZM17.9889 2.86478V0.0494661H17.894V2.86478H17.9889ZM21.9667 2.81803H17.9414V2.91153H21.9667V2.81803ZM21.1685 5.69384L22.0128 2.87853L21.9214 2.85172L21.0771 5.66772L21.1685 5.69384ZM20.4089 5.72753H21.1232V5.63403H20.4089V5.72753ZM20.4563 17.0727V5.68078H20.3614V17.0727H20.4563ZM21.1053 17.712C21.1053 17.3332 20.7932 17.0259 20.4089 17.0259V17.1194C20.7409 17.1194 21.0104 17.3848 21.0104 17.712H21.1053ZM21.1053 18.48V17.712H21.0104V18.48H21.1053ZM21.1878 18.4339H21.0579V18.5267H21.1878V18.4339ZM21.8842 19.12C21.8842 18.7412 21.5728 18.4339 21.1878 18.4339V18.5267C21.5205 18.5267 21.79 18.7928 21.79 19.12H21.8842ZM21.8842 19.888V19.12H21.79V19.888H21.8842ZM17.9414 19.9347H21.8375V19.8412H17.9414V19.9347ZM15.8631 19.9347H17.9414V19.8412H15.8631V19.9347ZM14.5644 19.9347H15.8631V19.8412H14.5644V19.9347ZM14.517 19.12V19.888H14.6119V19.12H14.517ZM15.2141 18.4339C14.8291 18.4339 14.517 18.7412 14.517 19.12H14.6119C14.6119 18.7928 14.8814 18.5267 15.2141 18.5267V18.4339ZM15.344 18.4339H15.2141V18.5267H15.344V18.4339ZM15.2966 17.712V18.48H15.3915V17.712H15.2966ZM15.8473 17.041C15.5324 17.107 15.2966 17.3827 15.2966 17.712H15.3915C15.3915 17.4274 15.595 17.1895 15.8672 17.1318L15.8473 17.041ZM15.7957 10.8006L15.8095 17.0864H15.9044L15.8906 10.8006H15.7957ZM10.8636 6.36759C13.4465 6.36759 15.5682 8.31734 15.7957 10.8047L15.8899 10.7965C15.6582 8.26097 13.4967 6.27409 10.8636 6.27409V6.36759ZM5.93148 10.8047C6.15905 8.31734 8.27998 6.36759 10.8636 6.36759V6.27409C8.23048 6.27409 6.06898 8.26097 5.83661 10.7965L5.93148 10.8047ZM5.91773 17.0809L5.93148 10.8006H5.83661L5.82286 17.0809H5.91773ZM6.69048 17.712C6.69048 17.5326 6.57017 17.3752 6.4148 17.2597C6.25873 17.1428 6.05798 17.0617 5.87717 17.0348L5.86273 17.1277C6.02842 17.1524 6.21405 17.2267 6.35773 17.3339C6.5028 17.4418 6.59561 17.5745 6.59561 17.712H6.69048ZM6.69048 18.48V17.712H6.59561V18.48H6.69048ZM6.77298 18.4339H6.64305V18.5267H6.77298V18.4339ZM7.46942 19.12C7.46942 18.7412 7.1573 18.4339 6.77298 18.4339V18.5267C7.10505 18.5267 7.37455 18.7928 7.37455 19.12H7.46942ZM7.46942 19.888V19.12H7.37455V19.888H7.46942ZM5.86342 19.9347H7.42198V19.8412H5.86342V19.9347ZM5.75548 19.9347H5.86342V19.8412H5.75548V19.9347ZM3.7858 19.9347H5.75548V19.8412H3.7858V19.9347ZM0.149608 19.9347H3.7858V19.8412H0.149608V19.9347ZM0.102171 19.12V19.888H0.197046V19.12H0.102171ZM0.798608 18.4339C0.414296 18.4339 0.102171 18.7412 0.102171 19.12H0.197046C0.197046 18.7928 0.466546 18.5267 0.798608 18.5267V18.4339ZM0.928546 18.4339H0.798608V18.5267H0.928546V18.4339ZM0.881108 17.712V18.48H0.975983V17.712H0.881108ZM1.57823 17.0259C1.19323 17.0259 0.881108 17.3332 0.881108 17.712H0.975983C0.975983 17.3848 1.24548 17.1194 1.57823 17.1194V17.0259ZM1.5308 5.68078V17.0727H1.62567V5.68078H1.5308ZM0.863921 5.72753H1.57823V5.63403H0.863921V5.72753ZM-0.0257041 2.87853L0.818546 5.69384L0.909296 5.66772L0.0650459 2.85172L-0.0257041 2.87853ZM3.7858 2.81803L0.0196709 2.81872V2.91153H3.7858V2.81803ZM3.73836 0.0494661V2.86478H3.83323V0.0494661H3.73836Z" fill="white"/>
</g>
<defs>
<clipPath id="clip0_2966_166">
<rect width="22" height="19.9375" fill="white"/>
</clipPath>
</defs>
</svg>
