<svg width="22" height="22" viewBox="0 0 22 22" fill="none" xmlns="http://www.w3.org/2000/svg">
<g clip-path="url(#clip0_2966_169)">
<path d="M21.9997 10.9998C21.9997 17.0746 17.0746 21.9997 10.9998 21.9997C4.92514 21.9997 0 17.0746 0 10.9998C0 4.92514 4.92514 0 10.9998 0C17.0758 0 21.9997 4.92514 21.9997 10.9998Z" fill="white"/>
<path d="M5.42685 11.3695L5.4743 11.2949L8.3358 6.81841C8.37762 6.75288 8.47594 6.75965 8.50758 6.83084C8.98563 7.90221 9.39812 9.23464 9.20488 10.0642C9.12238 10.4055 8.89636 10.8677 8.64206 11.2949C8.6093 11.357 8.57314 11.4181 8.5347 11.4768C8.51662 11.504 8.48611 11.5198 8.45333 11.5198H5.51047C5.43136 11.5198 5.38503 11.4339 5.42685 11.3695Z" fill="#0F0F0F"/>
<path d="M18.1815 12.2012V12.9098C18.1815 12.9505 18.1566 12.9867 18.1204 13.0025C17.8989 13.0974 17.1406 13.4455 16.8253 13.884C16.0206 15.004 15.4059 16.6054 14.0316 16.6054H8.29844C6.26648 16.6054 4.61987 14.9531 4.61987 12.9143V12.8488C4.61987 12.7946 4.66394 12.7505 4.71819 12.7505H7.91422C7.97749 12.7505 8.02382 12.8092 8.01819 12.8714C7.99557 13.0793 8.03401 13.2918 8.13232 13.4851C8.32218 13.8704 8.71547 14.1112 9.14039 14.1112H10.7226V12.8759H9.15848C9.07824 12.8759 9.03079 12.7832 9.07712 12.7177C9.09406 12.6917 9.11329 12.6646 9.13362 12.6341C9.28167 12.4239 9.493 12.0973 9.70321 11.7255C9.84674 11.4746 9.98573 11.2067 10.0976 10.9378C10.1202 10.8892 10.1383 10.8394 10.1564 10.7908C10.1869 10.7049 10.2186 10.6247 10.2411 10.5445C10.2638 10.4766 10.2818 10.4055 10.2999 10.3388C10.353 10.1105 10.3756 9.86864 10.3756 9.61775C10.3756 9.51944 10.3711 9.41659 10.3621 9.31827C10.3575 9.21091 10.344 9.10353 10.3304 8.99617C10.3214 8.90125 10.3044 8.80744 10.2864 8.70912C10.2638 8.5656 10.2321 8.42321 10.1959 8.27967L10.1835 8.22544C10.1564 8.1271 10.1338 8.03331 10.1022 7.935C10.0129 7.62645 9.91003 7.32585 9.80153 7.04445C9.76197 6.93256 9.71676 6.8252 9.67155 6.71784C9.60489 6.55623 9.53707 6.40932 9.47492 6.2703C9.44328 6.20701 9.41616 6.14937 9.38903 6.09061C9.35852 6.02393 9.32688 5.95725 9.29523 5.89398C9.27263 5.84538 9.24663 5.80017 9.22854 5.75496L9.0353 5.39784C9.00817 5.34924 9.05338 5.2916 9.10649 5.3063L10.3157 5.63403H10.3191C10.3214 5.63403 10.3225 5.63517 10.3236 5.63517L10.483 5.67924L10.6582 5.72898L10.7226 5.74704V5.02829C10.7226 4.68133 11.0006 4.39993 11.3442 4.39993C11.5159 4.39993 11.6719 4.47 11.7838 4.58414C11.8957 4.69829 11.9657 4.85425 11.9657 5.02829V6.09514L12.0946 6.13129C12.1047 6.1347 12.1149 6.13921 12.1239 6.14598C12.1556 6.16972 12.2008 6.20474 12.2584 6.24771C12.3036 6.28385 12.3522 6.32794 12.411 6.37315C12.5274 6.46694 12.6664 6.58787 12.819 6.72688C12.8597 6.76191 12.8992 6.79808 12.9354 6.83424C13.132 7.01732 13.3524 7.23204 13.5626 7.46937C13.6214 7.53606 13.679 7.60386 13.7378 7.67505C13.7965 7.74738 13.8587 7.81858 13.9129 7.88979C13.9842 7.98472 14.061 8.08303 14.1277 8.18588C14.1593 8.23448 14.1955 8.2842 14.226 8.3328C14.3119 8.46275 14.3876 8.59725 14.4599 8.73174C14.4905 8.79389 14.5221 8.86169 14.5492 8.92837C14.6294 9.10806 14.6927 9.29115 14.7334 9.47423C14.7458 9.51378 14.7549 9.55673 14.7594 9.59516V9.6042C14.773 9.65843 14.7775 9.71607 14.782 9.77483C14.8001 9.96245 14.7911 10.15 14.7504 10.3388C14.7334 10.419 14.7108 10.4947 14.6837 10.575C14.6566 10.6518 14.6294 10.7321 14.5944 10.8078C14.5266 10.9649 14.4464 11.122 14.3514 11.2689C14.3209 11.3231 14.2848 11.3808 14.2486 11.435C14.209 11.4926 14.1684 11.5469 14.1322 11.6C14.0825 11.6678 14.0294 11.739 13.9751 11.8023C13.9265 11.869 13.8768 11.9357 13.8225 11.9944C13.7468 12.0837 13.6745 12.1685 13.5988 12.2498C13.5536 12.3029 13.505 12.3572 13.4552 12.4058C13.4067 12.46 13.3569 12.5086 13.3117 12.5538C13.236 12.6296 13.1727 12.6883 13.1196 12.7369L12.9953 12.8511C12.9772 12.8669 12.9535 12.8759 12.9286 12.8759H11.9657V14.1112H13.1772C13.4485 14.1112 13.7061 14.0151 13.9141 13.8388C13.9853 13.7766 14.2961 13.5077 14.6633 13.102C14.6758 13.0884 14.6916 13.0782 14.7097 13.0737L18.056 12.1063C18.1182 12.0882 18.1815 12.1357 18.1815 12.2012Z" fill="#0F0F0F"/>
</g>
<defs>
<clipPath id="clip0_2966_169">
<rect width="22" height="22" fill="white"/>
</clipPath>
</defs>
</svg>
