<svg width="25" height="25" viewBox="0 0 25 25" fill="none" xmlns="http://www.w3.org/2000/svg">
<path d="M12.5 24C18.8513 24 24 18.8513 24 12.5C24 6.14873 18.8513 1 12.5 1C6.14873 1 1 6.14873 1 12.5C1 18.8513 6.14873 24 12.5 24Z" stroke="white" stroke-opacity="0.3" stroke-dasharray="2 2"/>
<g clip-path="url(#clip0_15_109)">
<path d="M12.5 18C15.5376 18 18 15.5376 18 12.5C18 9.46243 15.5376 7 12.5 7C9.46243 7 7 9.46243 7 12.5C7 15.5376 9.46243 18 12.5 18Z" stroke="#3FD1F2"/>
<path d="M13.5 12.5C13.5 11.9477 13.0523 11.5 12.5 11.5C11.9477 11.5 11.5 11.9477 11.5 12.5C11.5 13.0523 11.9477 13.5 12.5 13.5C13.0523 13.5 13.5 13.0523 13.5 12.5Z" fill="#3FD1F2"/>
</g>
<defs>
<clipPath id="clip0_15_109">
<rect width="12" height="12" fill="white" transform="translate(6.5 6.5)"/>
</clipPath>
</defs>
</svg>
